# Blender 4.0.1
# www.blender.org
mtllib senile.mtl
o Senile
v -0.850404 -0.322419 1.000000
v -0.850404 0.322419 1.000000
v -0.850404 -0.322419 -1.000000
v -0.850404 0.322419 -1.000000
v 0.850404 -0.322419 1.000000
v 0.850404 0.322419 1.000000
v 0.850404 -0.322419 -1.000000
v 0.850404 0.322419 -1.000000
v 1.353189 -0.668176 -2.086981
v 0.860268 -0.101548 2.567742
v 0.860268 -0.101548 -2.567742
v 0.860268 -0.668176 -2.110015
v 1.353189 -0.101548 2.567742
v 1.353189 -0.101548 -2.567742
v 0.860268 -0.384862 2.567742
v 0.860268 -0.384862 -2.567742
v 1.353189 -0.384862 -2.567742
v 1.353189 -0.384862 2.567742
v 1.353189 -0.668176 2.171923
v 0.860268 -0.668176 2.186797
v 0.860268 -0.386415 2.567742
v -0.864692 -0.657041 -2.086981
v -1.357613 -0.090413 2.567742
v -1.357613 -0.090413 -2.567742
v -1.357613 -0.657041 -2.110015
v -0.864692 -0.090413 2.567742
v -0.864692 -0.090413 -2.567742
v -1.357613 -0.373727 2.567742
v -1.357613 -0.373727 -2.567742
v -0.864692 -0.373727 -2.567742
v -0.864692 -0.373727 2.567742
v -0.864692 -0.657041 2.171923
v -1.357613 -0.657041 2.186797
v -1.357613 -0.375280 2.567742
vn -1.0000 -0.0000 -0.0000
vn -0.0000 -0.0000 -1.0000
vn 1.0000 -0.0000 -0.0000
vn -0.0000 -0.0000 1.0000
vn -0.0000 -1.0000 -0.0000
vn -0.0000 1.0000 -0.0000
vn 0.0121 -0.8560 -0.5168
vn 0.0089 -0.8086 0.5883
vt 0.375000 0.000000
vt 0.625000 0.000000
vt 0.625000 0.250000
vt 0.375000 0.250000
vt 0.625000 0.500000
vt 0.375000 0.500000
vt 0.625000 0.750000
vt 0.375000 0.750000
vt 0.625000 1.000000
vt 0.375000 1.000000
vt 0.125000 0.500000
vt 0.125000 0.750000
vt 0.875000 0.500000
vt 0.875000 0.750000
vt 0.500000 0.250000
vt 0.500000 0.500000
vt 0.375000 0.018545
vt 0.500000 0.000000
vt 0.375000 0.227717
vt 0.500000 0.750000
vt 0.500000 1.000000
vt 0.125000 0.522283
vt 0.375000 0.523404
vt 0.375000 0.730731
vt 0.499315 1.000000
vt 0.125000 0.731455
s 0
f 1/1/1 2/2/1 4/3/1 3/4/1
f 3/4/2 4/3/2 8/5/2 7/6/2
f 7/6/3 8/5/3 6/7/3 5/8/3
f 5/8/4 6/7/4 2/9/4 1/10/4
f 3/11/5 7/6/5 5/8/5 1/12/5
f 8/5/6 4/13/6 2/14/6 6/7/6
f 16/15/2 11/3/2 14/5/2 17/16/2
f 20/17/1 15/18/1 10/2/1 11/3/1 16/15/1 12/19/1
f 18/20/4 13/7/4 10/9/4 15/21/4
f 14/5/6 11/13/6 10/14/6 13/7/6
f 12/22/7 16/15/7 17/16/7 9/23/7
f 15/18/8 20/17/8 19/24/8 18/20/8 21/25/8
f 21/25/4 18/20/4 15/21/4
f 12/22/5 9/23/5 19/24/5 20/26/5
f 9/23/3 17/16/3 14/5/3 13/7/3 18/20/3 19/24/3
f 29/15/2 24/3/2 27/5/2 30/16/2
f 33/17/1 28/18/1 23/2/1 24/3/1 29/15/1 25/19/1
f 31/20/4 26/7/4 23/9/4 28/21/4
f 27/5/6 24/13/6 23/14/6 26/7/6
f 25/22/7 29/15/7 30/16/7 22/23/7
f 28/18/8 33/17/8 32/24/8 31/20/8 34/25/8
f 34/25/4 31/20/4 28/21/4
f 25/22/5 22/23/5 32/24/5 33/26/5
f 22/23/3 30/16/3 27/5/3 26/7/3 31/20/3 32/24/3
