# Blender 4.0.1
# www.blender.org
mtllib tun.mtl
o Tun
v -0.006834 0.360863 -3.773064
v -0.002178 0.291217 0.005370
v 0.049504 0.355689 -3.773229
v 0.054161 0.286044 0.005206
v 0.103761 0.339523 -3.773594
v 0.108418 0.269878 0.004841
v 0.153852 0.312986 -3.774145
v 0.158508 0.243340 0.004290
v 0.197851 0.277097 -3.774861
v 0.202507 0.207452 0.003574
v 0.234068 0.233236 -3.775714
v 0.238724 0.163591 0.002721
v 0.261110 0.183088 -3.776671
v 0.265767 0.113443 0.001763
v 0.277940 0.128581 -3.777697
v 0.282596 0.058936 0.000738
v 0.283909 0.071809 -3.778751
v 0.288566 0.002164 -0.000316
v 0.278790 0.014954 -3.779792
v 0.283446 -0.054692 -0.001357
v 0.262777 -0.039800 -3.780782
v 0.267433 -0.109445 -0.002347
v 0.236487 -0.090347 -3.781681
v 0.241143 -0.159993 -0.003246
v 0.200930 -0.134746 -3.782456
v 0.205587 -0.204392 -0.004021
v 0.157473 -0.171291 -3.783076
v 0.162129 -0.240936 -0.004641
v 0.107785 -0.198576 -3.783518
v 0.112441 -0.268222 -0.005083
v 0.053776 -0.215554 -3.783764
v 0.058432 -0.285200 -0.005329
v -0.002479 -0.221572 -3.783806
v 0.002178 -0.291217 -0.005371
v -0.058817 -0.216398 -3.783641
v -0.054161 -0.286044 -0.005206
v -0.113074 -0.200232 -3.783276
v -0.108418 -0.269878 -0.004841
v -0.163164 -0.173695 -3.782725
v -0.158508 -0.243340 -0.004290
v -0.207163 -0.137806 -3.782009
v -0.202507 -0.207452 -0.003574
v -0.243380 -0.093945 -3.781156
v -0.238724 -0.163591 -0.002721
v -0.270423 -0.043798 -3.780199
v -0.265767 -0.113443 -0.001764
v -0.287253 0.010710 -3.779173
v -0.282596 -0.058936 -0.000738
v -0.293222 0.067482 -3.778119
v -0.288566 -0.002164 0.000316
v -0.288102 0.124337 -3.777078
v -0.283446 0.054692 0.001357
v -0.272090 0.179091 -3.776088
v -0.267433 0.109445 0.002347
v -0.245800 0.229638 -3.775189
v -0.241143 0.159993 0.003246
v -0.210243 0.274037 -3.774414
v -0.205587 0.204392 0.004021
v -0.166785 0.310582 -3.773794
v -0.162129 0.240936 0.004641
v -0.117097 0.337867 -3.773352
v -0.112441 0.268222 0.005082
v -0.063088 0.354845 -3.773106
v -0.058432 0.285200 0.005329
vn 0.0915 0.9956 0.0182
vn 0.2856 0.9582 0.0173
vn 0.4682 0.8835 0.0157
vn 0.6321 0.7747 0.0135
vn 0.7712 0.6366 0.0108
vn 0.8802 0.4745 0.0077
vn 0.9555 0.2949 0.0043
vn 0.9945 0.1046 0.0007
vn 0.9960 -0.0896 -0.0029
vn 0.9598 -0.2806 -0.0064
vn 0.8872 -0.4613 -0.0096
vn 0.7806 -0.6249 -0.0125
vn 0.6437 -0.7652 -0.0149
vn 0.4814 -0.8764 -0.0167
vn 0.2999 -0.9538 -0.0180
vn 0.1064 -0.9942 -0.0185
vn -0.0915 -0.9956 -0.0182
vn -0.2856 -0.9582 -0.0173
vn -0.4682 -0.8835 -0.0157
vn -0.6321 -0.7747 -0.0135
vn -0.7712 -0.6366 -0.0108
vn -0.8802 -0.4745 -0.0077
vn -0.9555 -0.2949 -0.0043
vn -0.9945 -0.1046 -0.0007
vn -0.9960 0.0896 0.0029
vn -0.9598 0.2806 0.0064
vn -0.8872 0.4613 0.0096
vn -0.7806 0.6249 0.0125
vn -0.6437 0.7652 0.0149
vn -0.4814 0.8764 0.0167
vn 0.0012 -0.0184 0.9998
vn -0.2999 0.9538 0.0180
vn -0.1064 0.9942 0.0185
vn -0.0012 0.0184 -0.9998
vt 1.000000 0.500000
vt 1.000000 1.000000
vt 0.968750 1.000000
vt 0.968750 0.500000
vt 0.937500 1.000000
vt 0.937500 0.500000
vt 0.906250 1.000000
vt 0.906250 0.500000
vt 0.875000 1.000000
vt 0.875000 0.500000
vt 0.843750 1.000000
vt 0.843750 0.500000
vt 0.812500 1.000000
vt 0.812500 0.500000
vt 0.781250 1.000000
vt 0.781250 0.500000
vt 0.750000 1.000000
vt 0.750000 0.500000
vt 0.718750 1.000000
vt 0.718750 0.500000
vt 0.687500 1.000000
vt 0.687500 0.500000
vt 0.656250 1.000000
vt 0.656250 0.500000
vt 0.625000 1.000000
vt 0.625000 0.500000
vt 0.593750 1.000000
vt 0.593750 0.500000
vt 0.562500 1.000000
vt 0.562500 0.500000
vt 0.531250 1.000000
vt 0.531250 0.500000
vt 0.500000 1.000000
vt 0.500000 0.500000
vt 0.468750 1.000000
vt 0.468750 0.500000
vt 0.437500 1.000000
vt 0.437500 0.500000
vt 0.406250 1.000000
vt 0.406250 0.500000
vt 0.375000 1.000000
vt 0.375000 0.500000
vt 0.343750 1.000000
vt 0.343750 0.500000
vt 0.312500 1.000000
vt 0.312500 0.500000
vt 0.281250 1.000000
vt 0.281250 0.500000
vt 0.250000 1.000000
vt 0.250000 0.500000
vt 0.218750 1.000000
vt 0.218750 0.500000
vt 0.187500 1.000000
vt 0.187500 0.500000
vt 0.156250 1.000000
vt 0.156250 0.500000
vt 0.125000 1.000000
vt 0.125000 0.500000
vt 0.093750 1.000000
vt 0.093750 0.500000
vt 0.062500 1.000000
vt 0.062500 0.500000
vt 0.296822 0.485388
vt 0.250000 0.490000
vt 0.203178 0.485388
vt 0.158156 0.471731
vt 0.116663 0.449553
vt 0.080294 0.419706
vt 0.050447 0.383337
vt 0.028269 0.341844
vt 0.014612 0.296822
vt 0.010000 0.250000
vt 0.014612 0.203178
vt 0.028269 0.158156
vt 0.050447 0.116663
vt 0.080294 0.080294
vt 0.116663 0.050447
vt 0.158156 0.028269
vt 0.203178 0.014612
vt 0.250000 0.010000
vt 0.296822 0.014612
vt 0.341844 0.028269
vt 0.383337 0.050447
vt 0.419706 0.080294
vt 0.449553 0.116663
vt 0.471731 0.158156
vt 0.485388 0.203178
vt 0.490000 0.250000
vt 0.485388 0.296822
vt 0.471731 0.341844
vt 0.449553 0.383337
vt 0.419706 0.419706
vt 0.383337 0.449553
vt 0.341844 0.471731
vt 0.031250 1.000000
vt 0.031250 0.500000
vt 0.000000 1.000000
vt 0.000000 0.500000
vt 0.750000 0.490000
vt 0.796822 0.485388
vt 0.841844 0.471731
vt 0.883337 0.449553
vt 0.919706 0.419706
vt 0.949553 0.383337
vt 0.971731 0.341844
vt 0.985388 0.296822
vt 0.990000 0.250000
vt 0.985388 0.203178
vt 0.971731 0.158156
vt 0.949553 0.116663
vt 0.919706 0.080294
vt 0.883337 0.050447
vt 0.841844 0.028269
vt 0.796822 0.014612
vt 0.750000 0.010000
vt 0.703178 0.014612
vt 0.658156 0.028269
vt 0.616663 0.050447
vt 0.580294 0.080294
vt 0.550447 0.116663
vt 0.528269 0.158156
vt 0.514612 0.203178
vt 0.510000 0.250000
vt 0.514612 0.296822
vt 0.528269 0.341844
vt 0.550447 0.383337
vt 0.580294 0.419706
vt 0.616663 0.449553
vt 0.658156 0.471731
vt 0.703178 0.485388
s 0
f 1/1/1 2/2/1 4/3/1 3/4/1
f 3/4/2 4/3/2 6/5/2 5/6/2
f 5/6/3 6/5/3 8/7/3 7/8/3
f 7/8/4 8/7/4 10/9/4 9/10/4
f 9/10/5 10/9/5 12/11/5 11/12/5
f 11/12/6 12/11/6 14/13/6 13/14/6
f 13/14/7 14/13/7 16/15/7 15/16/7
f 15/16/8 16/15/8 18/17/8 17/18/8
f 17/18/9 18/17/9 20/19/9 19/20/9
f 19/20/10 20/19/10 22/21/10 21/22/10
f 21/22/11 22/21/11 24/23/11 23/24/11
f 23/24/12 24/23/12 26/25/12 25/26/12
f 25/26/13 26/25/13 28/27/13 27/28/13
f 27/28/14 28/27/14 30/29/14 29/30/14
f 29/30/15 30/29/15 32/31/15 31/32/15
f 31/32/16 32/31/16 34/33/16 33/34/16
f 33/34/17 34/33/17 36/35/17 35/36/17
f 35/36/18 36/35/18 38/37/18 37/38/18
f 37/38/19 38/37/19 40/39/19 39/40/19
f 39/40/20 40/39/20 42/41/20 41/42/20
f 41/42/21 42/41/21 44/43/21 43/44/21
f 43/44/22 44/43/22 46/45/22 45/46/22
f 45/46/23 46/45/23 48/47/23 47/48/23
f 47/48/24 48/47/24 50/49/24 49/50/24
f 49/50/25 50/49/25 52/51/25 51/52/25
f 51/52/26 52/51/26 54/53/26 53/54/26
f 53/54/27 54/53/27 56/55/27 55/56/27
f 55/56/28 56/55/28 58/57/28 57/58/28
f 57/58/29 58/57/29 60/59/29 59/60/29
f 59/60/30 60/59/30 62/61/30 61/62/30
f 4/63/31 2/64/31 64/65/31 62/66/31 60/67/31 58/68/31 56/69/31 54/70/31 52/71/31 50/72/31 48/73/31 46/74/31 44/75/31 42/76/31 40/77/31 38/78/31 36/79/31 34/80/31 32/81/31 30/82/31 28/83/31 26/84/31 24/85/31 22/86/31 20/87/31 18/88/31 16/89/31 14/90/31 12/91/31 10/92/31 8/93/31 6/94/31
f 61/62/32 62/61/32 64/95/32 63/96/32
f 63/96/33 64/95/33 2/97/33 1/98/33
f 1/99/34 3/100/34 5/101/34 7/102/34 9/103/34 11/104/34 13/105/34 15/106/34 17/107/34 19/108/34 21/109/34 23/110/34 25/111/34 27/112/34 29/113/34 31/114/34 33/115/34 35/116/34 37/117/34 39/118/34 41/119/34 43/120/34 45/121/34 47/122/34 49/123/34 51/124/34 53/125/34 55/126/34 57/127/34 59/128/34 61/129/34 63/130/34
